s<svg width="243" height="183" viewBox="0 0 243 183" fill="none" xmlns="http://www.w3.org/2000/svg">
<path opacity="0.3" d="M88.823 35.9458C65.3795 41.4558 46.8569 58.8668 41.438 81.2471C37.3981 97.9047 40.9459 115.085 68.1376 121.342C126.913 134.865 190.415 130.376 198.045 103.366C205.676 76.3567 191.515 30.0288 157.896 27.1614C138.753 25.515 110.019 30.9825 88.823 35.9458Z" fill="#E6E6E6"/>
<path opacity="0.45" d="M119.045 153.375C164.699 153.375 201.708 149.007 201.708 143.619C201.708 138.231 164.699 133.863 119.045 133.863C73.3921 133.863 36.3828 138.231 36.3828 143.619C36.3828 149.007 73.3921 153.375 119.045 153.375Z" fill="#E6E6E6"/>
<path d="M184.578 96.0598L181.238 95.1229L168.422 140.811L171.762 141.748L184.578 96.0598Z" fill="#E6E6E6"/>
<path d="M186.211 97.8075C185.948 97.8065 185.687 97.7697 185.434 97.6981L179.82 96.149C179.455 96.0466 179.114 95.8733 178.816 95.6389C178.518 95.4046 178.269 95.1138 178.083 94.7832C177.898 94.4526 177.779 94.0886 177.734 93.7121C177.689 93.3357 177.719 92.954 177.822 92.589L178.952 88.5613C179.159 87.8238 179.65 87.1985 180.317 86.8226C180.984 86.4468 181.774 86.3511 182.512 86.5566L188.113 88.13C188.851 88.3381 189.475 88.8306 189.85 89.4993C190.225 90.168 190.319 90.9581 190.111 91.696L188.981 95.7237C188.806 96.3232 188.442 96.85 187.942 97.2255C187.443 97.601 186.836 97.8051 186.211 97.8075ZM185.92 95.985C186.057 96.0238 186.201 96.0351 186.343 96.0183C186.485 96.0014 186.623 95.9568 186.747 95.8868C186.872 95.8168 186.982 95.7229 187.07 95.6105C187.158 95.4981 187.224 95.3694 187.262 95.2317L188.392 91.2039C188.432 91.0659 188.444 90.9214 188.428 90.7787C188.411 90.636 188.367 90.498 188.297 90.3726C188.227 90.2472 188.132 90.1369 188.02 90.0481C187.907 89.9593 187.777 89.8938 187.639 89.8553L182.038 88.2879C181.9 88.2491 181.756 88.2378 181.614 88.2546C181.472 88.2715 181.335 88.3161 181.21 88.3861C181.086 88.4561 180.976 88.55 180.887 88.6624C180.799 88.7748 180.734 88.9035 180.695 89.0412L179.565 93.069C179.526 93.2066 179.515 93.3505 179.532 93.4925C179.549 93.6345 179.593 93.7718 179.663 93.8965C179.733 94.0212 179.827 94.1309 179.94 94.2193C180.052 94.3076 180.181 94.373 180.319 94.4115L185.92 95.985Z" fill="#C9C9C9"/>
<path d="M178.18 143.977L180.969 134.039L164.354 129.397L161.438 139.786C161.049 141.16 161.009 142.609 161.322 144.002L178.18 143.977Z" fill="#C9C9C9"/>
<path d="M100.329 64.3585H91.8359V145.107H100.329V64.3585Z" fill="#BF9663"/>
<path d="M146.225 64.3585H137.732V145.107H146.225V64.3585Z" fill="#BF9663"/>
<path opacity="0.08" d="M100.329 64.3585H91.8359V145.107H100.329V64.3585Z" fill="black"/>
<path opacity="0.08" d="M146.225 64.3585H137.732V145.107H146.225V64.3585Z" fill="black"/>
<path d="M156.315 74.3823H81.7812V100.675H156.315V74.3823Z" fill="#BF9663"/>
<path d="M85.5605 74.3823L94.4665 100.675H106.787L96.6656 74.3823H85.5605Z" fill="#24285B"/>
<path d="M108.372 74.3823L117.278 100.675H129.598L119.471 74.3823H108.372Z" fill="#24285B"/>
<path d="M131.117 74.3823L140.023 100.675H152.343L142.216 74.3823H131.117Z" fill="#24285B"/>
<path d="M156.315 110.632H81.7812V122.958H156.315V110.632Z" fill="#BF9663"/>
<path d="M61.9648 139.98L69.4128 105.705C69.4909 105.368 69.6808 105.067 69.9516 104.852C70.2225 104.637 70.5582 104.52 70.9042 104.52C71.2502 104.52 71.5859 104.637 71.8568 104.852C72.1276 105.067 72.3175 105.368 72.3956 105.705L80.524 140.551L61.9648 139.98Z" fill="#BF9663"/>
<path d="M80.1236 136.675H62.1295C60.6465 136.675 59.4443 137.877 59.4443 139.36V139.731C59.4443 141.214 60.6465 142.416 62.1295 142.416H80.1236C81.6066 142.416 82.8088 141.214 82.8088 139.731V139.36C82.8088 137.877 81.6066 136.675 80.1236 136.675Z" fill="#BF9663"/>
<path opacity="0.46" d="M80.1236 136.675H62.1295C60.6465 136.675 59.4443 137.877 59.4443 139.36V139.731C59.4443 141.214 60.6465 142.416 62.1295 142.416H80.1236C81.6066 142.416 82.8088 141.214 82.8088 139.731V139.36C82.8088 137.877 81.6066 136.675 80.1236 136.675Z" fill="white"/>
<path opacity="0.08" d="M66.6428 118.426L74.6193 115.231L76.946 125.206L64.4072 128.675L66.6428 118.426Z" fill="black"/>
<path d="M63.3624 142.969C63.3624 142.969 66.7583 138.109 61.6918 136.736C56.6252 135.363 62.9068 128.808 58.1926 127.939C53.4784 127.071 54.262 134.014 54.262 134.014C54.262 134.014 51.0301 131.22 48.7581 133.589C46.486 135.958 49.6572 138.51 49.6572 138.51C49.6572 138.51 45.1192 140.077 47.9501 142.945L63.3624 142.969Z" fill="#E6E6E6"/>
<path d="M56.5459 143.619C56.5459 143.619 58.7025 139.925 61.8858 140.381C65.0691 140.837 64.7228 143.619 64.7228 143.619H56.5459Z" fill="#C9C9C9"/>
<path d="M135.569 74.0299L161.084 86.9393C161.286 87.0394 161.512 87.0766 161.735 87.0458C161.958 87.0151 162.166 86.918 162.332 86.7671C162.499 86.6162 162.616 86.4186 162.669 86.2001C162.722 85.9815 162.707 85.7522 162.627 85.5421L162.087 84.163C161.477 82.6004 161.477 80.8656 162.087 79.303C163.721 75.0505 166.139 65.938 159.353 60.8411C150.666 54.2983 137.24 54.9301 134.081 70.9924C133.957 71.5921 134.035 72.2162 134.305 72.7661C134.574 73.3161 135.019 73.7607 135.569 74.0299Z" fill="#FFD200"/>
<path opacity="0.08" d="M136.269 74.3823L156.31 93.7251V84.5154L136.269 74.3823Z" fill="black"/>
<path opacity="0.31" d="M139.232 64.5165C140.782 62.3477 143.91 59.1219 148.843 58.9882C149.037 58.983 149.227 59.0423 149.383 59.1569C149.54 59.2715 149.654 59.4348 149.707 59.6211C149.761 59.8075 149.751 60.0064 149.679 60.1865C149.607 60.3667 149.478 60.5179 149.311 60.6163C146.586 62.1628 144.218 64.2658 142.361 66.7885C142.096 67.1639 141.705 67.4317 141.259 67.5432C140.813 67.6547 140.342 67.6025 139.931 67.396C139.677 67.2717 139.453 67.093 139.276 66.8725C139.099 66.652 138.973 66.3951 138.906 66.1202C138.839 65.8453 138.834 65.5591 138.89 65.2819C138.947 65.0048 139.064 64.7434 139.232 64.5165Z" fill="white"/>
<path d="M60.6411 77.8085C60.6404 77.1924 60.5058 76.5839 60.2466 76.0249C59.9875 75.4659 59.61 74.97 59.1403 74.5713C58.6706 74.1726 58.1198 73.8808 57.5262 73.716C56.9325 73.5512 56.3101 73.5173 55.7021 73.6168C55.2141 72.7012 54.4869 71.9351 53.5978 71.4002C52.7088 70.8653 51.6913 70.5816 50.6538 70.5793H50.4412C50.5802 70.0394 50.6516 69.4844 50.6538 68.9269C50.6538 67.1208 49.9363 65.3886 48.6592 64.1114C47.382 62.8343 45.6499 62.1168 43.8437 62.1168C42.0376 62.1168 40.3054 62.8343 39.0283 64.1114C37.7511 65.3886 37.0336 67.1208 37.0336 68.9269C37.0358 69.4844 37.1072 70.0394 37.2463 70.5793H37.0336C35.5442 70.6278 34.1319 71.2535 33.0955 72.3243C32.059 73.395 31.4795 74.8269 31.4795 76.3171C31.4795 77.8074 32.059 79.2392 33.0955 80.31C34.1319 81.3807 35.5442 82.0065 37.0336 82.055H56.9414V82.0124C57.9626 81.8786 58.9005 81.3786 59.5809 80.6055C60.2614 79.8323 60.6381 78.8385 60.6411 77.8085Z" fill="#E6E6E6"/>
<path d="M199.753 45.356C199.751 43.8619 199.156 42.4295 198.099 41.3736C197.042 40.3176 195.609 39.7245 194.115 39.7245C193.812 39.7261 193.509 39.7525 193.21 39.8035C192.561 38.5949 191.598 37.5845 190.421 36.8796C189.244 36.1747 187.899 35.8016 186.527 35.8H186.248C186.431 35.0874 186.525 34.3548 186.527 33.6191C186.558 32.4151 186.348 31.217 185.909 30.0956C185.47 28.9741 184.811 27.9519 183.97 27.0893C183.13 26.2266 182.125 25.541 181.015 25.0729C179.906 24.6048 178.713 24.3636 177.509 24.3636C176.304 24.3636 175.112 24.6048 174.003 25.0729C172.893 25.541 171.888 26.2266 171.048 27.0893C170.207 27.9519 169.548 28.9741 169.109 30.0956C168.669 31.217 168.459 32.4151 168.491 33.6191C168.488 34.3688 168.58 35.1159 168.764 35.8426H168.484C166.523 35.921 164.668 36.7554 163.308 38.1709C161.948 39.5865 161.188 41.4733 161.188 43.4363C161.188 45.3993 161.948 47.2862 163.308 48.7017C164.668 50.1172 166.523 50.9516 168.484 51.0301H194.85V50.9754C196.212 50.7976 197.462 50.1283 198.365 49.0934C199.268 48.0585 199.761 46.7294 199.753 45.356Z" fill="#E6E6E6"/>
</svg>
