<svg width="724" height="724" viewBox="0 0 724 724" fill="none" xmlns="http://www.w3.org/2000/svg">
<g clip-path="url(#clip0_292_118)">
<path d="M1.85511 549.444L298.805 98.1273C316.225 71.6476 347.105 61.4278 404.306 99.2398C461.508 137.052 464.669 169.301 447.249 195.781L150.821 646.385" stroke="#7F8274" stroke-width="19.0177" stroke-linecap="round"/>
<path d="M333.234 120.774C333.234 120.774 352.444 114.639 381.664 133.664C410.884 152.689 412.674 173.034 412.674 173.034" stroke="#7F8274" stroke-width="12.6785" stroke-linecap="round"/>
<path d="M47.5507 555.049C47.5507 555.049 65.6378 551.681 94.2387 570.587C122.84 589.493 126.991 607.309 126.991 607.309" stroke="#7F8274" stroke-width="12.6785" stroke-linecap="round"/>
<path d="M333.237 120.775C333.237 120.775 160.994 385.557 47.551 555.05M366.685 127.602L80.9987 561.877M393.432 145.198L107.746 579.473M412.678 173.034L126.991 607.309" stroke="#7F8274" stroke-width="12.6785" stroke-linecap="round"/>
<path d="M724 575.924L542.985 262.802C527.144 235.348 498.55 217.723 443.642 249.405C388.734 281.087 389.697 314.246 405.86 341.923L583.102 649.1" stroke="#7F8274" stroke-width="19.0177" stroke-linecap="round"/>
<path d="M429.404 313.293C429.404 313.293 435.211 291.646 459.919 277.389C484.627 263.132 506.274 268.939 506.274 268.939" stroke="#7F8274" stroke-width="12.6785" stroke-linecap="round"/>
<path d="M600.485 609.796C600.485 609.796 607.789 587.15 631.001 573.891C654.212 560.632 677.356 565.441 677.356 565.441" stroke="#7F8274" stroke-width="12.6785" stroke-linecap="round"/>
<path d="M506.275 268.938L677.358 565.44M474.1 272.865L642.014 563.877M449.472 287.076L617.386 578.087M429.404 313.292L600.487 609.794" stroke="#7F8274" stroke-width="12.6785" stroke-linecap="round"/>
</g>
<defs>
<clipPath id="clip0_292_118">
<rect width="724" height="724" fill="white"/>
</clipPath>
</defs>
</svg>
